<svg width="104" height="52" viewBox="0 0 104 52" fill="none" xmlns="http://www.w3.org/2000/svg">
<rect x="0.5" y="0.5" width="103" height="51" rx="4.5" stroke="#9747FF" stroke-dasharray="10 5"/>
<circle cx="26" cy="26" r="16" fill="black" fill-opacity="0.3"/>
<path d="M21 23.9999H31L30.1801 32.1989C30.0779 33.2213 29.2175 33.9999 28.19 33.9999H23.81C22.7825 33.9999 21.9221 33.2213 21.8199 32.1989L21 23.9999Z" fill="white"/>
<rect x="20" y="20.9999" width="12" height="2" rx="1" fill="white"/>
<path d="M24 21C24 19.8954 24.8954 19 26 19C27.1046 19 28 19.8954 28 21H24Z" fill="white"/>
<circle cx="78" cy="26" r="16" fill="#FF6565"/>
<path d="M73 23.9999H83L82.1801 32.1989C82.0779 33.2213 81.2175 33.9999 80.19 33.9999H75.81C74.7825 33.9999 73.9221 33.2213 73.8199 32.1989L73 23.9999Z" fill="white"/>
<rect x="72" y="20.9999" width="12" height="2" rx="1" fill="white"/>
<path d="M76 21C76 19.8954 76.8954 19 78 19C79.1046 19 80 19.8954 80 21H76Z" fill="white"/>
</svg>
