<svg width="108" height="60" viewBox="0 0 108 60" fill="none" xmlns="http://www.w3.org/2000/svg">
<rect x="0.5" y="0.5" width="107" height="59" rx="4.5" stroke="#9747FF" stroke-dasharray="10 5"/>
<g opacity="0.4">
<path d="M31.5 38.6027L22.5719 30.0666C20.695 28.2359 20.2697 24.7908 22.5713 22.5734C23.9942 21.2025 25.5929 20.8436 27.0488 21.057C28.5402 21.2756 29.8951 22.0998 30.7262 23.1151L31.5 24.0603L32.2738 23.1151C33.1049 22.0998 34.4598 21.2756 35.9512 21.057C37.4071 20.8436 39.0058 21.2025 40.4287 22.5734C42.7304 24.7909 42.305 28.236 40.428 30.0667L31.5 38.6027Z" stroke="#212121" stroke-width="2"/>
</g>
<path d="M76.5 38.6027L67.5719 30.0666C65.695 28.2359 65.2697 24.7908 67.5713 22.5734C68.9942 21.2025 70.5929 20.8436 72.0488 21.057C73.5402 21.2756 74.8951 22.0998 75.7262 23.1151L76.5 24.0603L77.2738 23.1151C78.1049 22.0998 79.4598 21.2756 80.9512 21.057C82.4071 20.8436 84.0058 21.2025 85.4287 22.5734C87.7304 24.7909 87.305 28.236 85.428 30.0667L76.5 38.6027Z" stroke="#212121" stroke-width="2"/>
</svg>
